<svg id="Layer_1" data-name="Layer 1" xmlns="http://www.w3.org/2000/svg" viewBox="0 0 768 768"><defs><style>.cls-1{fill:#b0d418;}.cls-2{fill:#fff;}.cls-3{fill:none;stroke:#b0d418;stroke-miterlimit:10;stroke-width:4px;}</style></defs><title>logo</title><circle class="cls-1" cx="384" cy="384" r="384"/><path class="cls-2" d="M957,703.51s113.67,53.21,145.11-58-21.77-186.23-21.77-186.23S990.81,331.06,828.77,335.9c0,0-87.07,19.35-164.46-21.77,0,0-24.19-24.18-36.28-16.93s33.86,26.61,33.86,62.88,7.25,46-12.09,94.33-46,111.25-31.44,166.87S688.49,766.4,765.89,788.16s113.67,9.68,162-43.53c0,0,21.76-29,24.18-36.28,0,0,12.09,16.93,14.51,43.54,1.33,14.64,1.93,25.61,2.2,32.53.22,5.65.22,8.58.22,8.58h9.68s.4-2.75.78-7.34C981,767.91,981.93,722.73,957,703.51Z" transform="translate(-452.1 -154.07)"/><path class="cls-3" d="M952.42,700.1s-119-174-253-335" transform="translate(-452.1 -154.07)"/><path class="cls-3" d="M956.42,693.1s47-161-20-284" transform="translate(-452.1 -154.07)"/><path class="cls-3" d="M961.42,692.1s69-63,88-119" transform="translate(-452.1 -154.07)"/><path class="cls-3" d="M963.42,624.1s-35-38-44-94" transform="translate(-452.1 -154.07)"/><path class="cls-3" d="M976.42,573.1s33-22,57-74" transform="translate(-452.1 -154.07)"/><path class="cls-3" d="M970.42,488.1s20-16,27-49" transform="translate(-452.1 -154.07)"/><path class="cls-3" d="M865.42,575.1s44-94,2-197" transform="translate(-452.1 -154.07)"/><path class="cls-3" d="M820.42,508.1s19-61-8-130" transform="translate(-452.1 -154.07)"/><path class="cls-3" d="M765.42,441.1s14-27,6-64" transform="translate(-452.1 -154.07)"/><path class="cls-3" d="M946.42,702.1s-23.18,2.09-60.32-4.51c-55.4-9.86-141.86-39.07-228.68-123.49" transform="translate(-452.1 -154.07)"/><path class="cls-3" d="M853.42,644.1s27,30,33,53" transform="translate(-452.1 -154.07)"/><path class="cls-3" d="M815.42,759.1s81-11,134-52" transform="translate(-452.1 -154.07)"/><path class="cls-3" d="M730.42,720.1s63.94,7.42,115-30.29" transform="translate(-452.1 -154.07)"/><path class="cls-3" d="M674.42,674.1s64.62,12.49,91.31-18.76" transform="translate(-452.1 -154.07)"/><path class="cls-3" d="M651.42,633.1s49.64,2.8,66.82-6.1" transform="translate(-452.1 -154.07)"/><path class="cls-3" d="M697.42,531.1s82,68,176,61" transform="translate(-452.1 -154.07)"/><path class="cls-3" d="M693.42,471.1s64,52,118,39" transform="translate(-452.1 -154.07)"/><path class="cls-3" d="M707.42,442.1s23,16,60,11" transform="translate(-452.1 -154.07)"/></svg>